<svg xmlns="http://www.w3.org/2000/svg" fill="none" viewBox="0 0 17 17" height="17" width="17">
<path stroke-linejoin="round" stroke-linecap="round" stroke="black" d="M3.58681 15.2747H12.9201M1.92014 5.94141H14.5868M6.92014 1.94141L5.58681 5.94141L8.25348 12.9414L10.9201 5.94141L9.58681 1.94141M8.64811 12.8406L14.6078 6.28494C14.7185 6.16317 14.7739 6.10228 14.796 6.03295C14.8154 5.97186 14.8168 5.90646 14.8 5.84459C14.781 5.77438 14.7283 5.71117 14.6229 5.58475L11.7467 2.13331C11.6879 2.06277 11.6586 2.0275 11.6225 2.00214C11.5906 1.97968 11.555 1.96299 11.5173 1.95285C11.4747 1.94141 11.4288 1.94141 11.337 1.94141H5.16994C5.07812 1.94141 5.03221 1.94141 4.98967 1.95285C4.95197 1.96299 4.91635 1.97968 4.88443 2.00214C4.8484 2.0275 4.81901 2.06277 4.76023 2.13331L1.88403 5.58474C1.77867 5.71117 1.726 5.77438 1.70695 5.84459C1.69016 5.90646 1.69157 5.97186 1.711 6.03295C1.73306 6.10228 1.78841 6.16317 1.89911 6.28494L7.85884 12.8406C7.99565 12.9911 8.06406 13.0664 8.14446 13.0942C8.21508 13.1186 8.29187 13.1186 8.3625 13.0942C8.4429 13.0664 8.5113 12.9911 8.64811 12.8406Z"></path>
</svg>
