<svg width="187" height="19" viewBox="0 0 187 19" fill="none" xmlns="http://www.w3.org/2000/svg">
<g clip-path="url(#clip0_20854_69080)">
<path d="M91.6565 11.5742H101.003C100.562 14.2241 97.8877 15.6465 94.2318 15.6465C90.1101 15.6465 87.3628 13.4142 87.3628 9.61143C87.3628 5.80868 90.1101 3.55227 94.2318 3.55227C98.2066 3.55227 100.659 4.87721 100.855 7.30569H104.363C104.191 3.30678 100.119 0.632812 94.2318 0.632812C88.0246 0.632812 83.8789 4.21416 83.8789 9.61143C83.8789 15.0087 88.0246 18.59 94.2318 18.59C97.4208 18.59 100.414 17.4613 101.96 14.9594L101.984 18.1977H104.634V9.02295H91.6565V11.5742Z" fill="black"/>
<path d="M117.736 1.03125L107.285 18.2038H111.308L113.418 14.5732H126.273L128.407 18.2038H132.43L121.955 1.03125H117.736ZM115.111 11.6296L119.87 3.45973L124.58 11.6296H115.111Z" fill="black"/>
<path d="M145.703 13.1014L138.466 1.03125H134.885V18.2038H138.369V6.64877L145.36 18.2038H146.022L153.039 6.57535V18.2038H156.523V1.03125H152.941L145.703 13.1014Z" fill="black"/>
<path d="M160.572 18.2038H176.763V15.2603H164.056V10.8438H176.543V8.12054H164.056V3.95071H176.763V1.03125H160.572V18.2038Z" fill="black"/>
<path d="M183.686 4.19123H184.068C184.781 4.19123 185.256 3.85168 185.256 3.25746C185.256 2.69651 184.832 2.28125 184.068 2.28125H181.13V5.97502H182.038L182.03 4.44704H182.922C183.55 4.44704 183.686 4.74415 184.374 5.97502H185.52C184.917 4.76824 184.577 4.2417 183.686 4.19123ZM182.029 3.74155V3.02H183.881C184.203 3.02 184.348 3.13013 184.348 3.39397C184.348 3.6234 184.203 3.74155 183.881 3.74155H182.029Z" fill="black"/>
<path d="M183.057 1.03125C180.781 1.03125 179.389 2.2713 179.389 4.13884C179.389 6.00637 180.739 7.24642 183.057 7.24642C185.384 7.24642 186.734 6.00637 186.734 4.13884C186.734 2.24606 185.384 1.03125 183.057 1.03125ZM183.057 7.01699C180.858 7.01699 179.61 5.81939 179.61 4.15604C179.61 2.48352 180.833 1.26068 183.057 1.26068C185.349 1.26068 186.496 2.45828 186.496 4.12163C186.496 5.79415 185.376 7.01699 183.057 7.01699Z" fill="black"/>
<path d="M20.2407 1.03125H15.2851L4.29439 10.697V1.03125H0.810547V18.2038H4.29439V14.5732L10.4763 9.32274L16.3404 18.2038H20.8544L13.1996 7.01699L20.2407 1.03125Z" fill="black"/>
<path d="M26.9643 1.03125H23.4805V18.2038H26.9643V1.03125Z" fill="black"/>
<path d="M73.5512 1.03125H68.5956L57.6049 10.697V1.03125H54.1211V18.2038H57.6049V14.5732L63.7868 9.32274L69.651 18.2038H74.165L66.5101 7.01699L73.5512 1.03125Z" fill="black"/>
<path d="M40.5296 3.55227C44.1144 3.55227 46.6966 5.06763 47.2473 7.72325H50.8412C50.4065 3.42953 46.3858 0.632812 40.5296 0.632812C34.3225 0.632812 30.1768 4.21416 30.1768 9.61143C30.1768 15.0087 34.3225 18.59 40.5296 18.59C46.3628 18.59 50.3755 15.8163 50.8366 11.5512H47.2427C46.6875 14.1713 44.1133 15.6454 40.5285 15.6454C36.4068 15.6454 33.6595 13.413 33.6595 9.61028C33.6595 5.80753 36.408 3.55227 40.5296 3.55227Z" fill="black"/>
</g>
<defs>
<clipPath id="clip0_20854_69080">
<rect width="185.95" height="18.01" fill="white" transform="translate(0.810547 0.632812)"/>
</clipPath>
</defs>
</svg>
